<svg width="34" height="47" viewBox="0 0 34 47" fill="none" xmlns="http://www.w3.org/2000/svg">
<path d="M29.0605 6.23458H22.1855C22.1855 3.02965 19.7191 0.42395 16.6855 0.42395C13.652 0.42395 11.1855 3.02965 11.1855 6.23458H4.31055C2.0332 6.23458 0.185547 8.18659 0.185547 10.5926V42.551C0.185547 44.957 2.0332 46.909 4.31055 46.909H29.0605C31.3379 46.909 33.1855 44.957 33.1855 42.551V10.5926C33.1855 8.18659 31.3379 6.23458 29.0605 6.23458ZM8.43555 38.9194C7.29258 38.9194 6.37305 37.9479 6.37305 36.7404C6.37305 35.5329 7.29258 34.5614 8.43555 34.5614C9.57852 34.5614 10.498 35.5329 10.498 36.7404C10.498 37.9479 9.57852 38.9194 8.43555 38.9194ZM8.43555 30.2034C7.29258 30.2034 6.37305 29.232 6.37305 28.0244C6.37305 26.8169 7.29258 25.8454 8.43555 25.8454C9.57852 25.8454 10.498 26.8169 10.498 28.0244C10.498 29.232 9.57852 30.2034 8.43555 30.2034ZM8.43555 21.4875C7.29258 21.4875 6.37305 20.516 6.37305 19.3085C6.37305 18.101 7.29258 17.1295 8.43555 17.1295C9.57852 17.1295 10.498 18.101 10.498 19.3085C10.498 20.516 9.57852 21.4875 8.43555 21.4875ZM16.6855 4.05559C17.8285 4.05559 18.748 5.02706 18.748 6.23458C18.748 7.4421 17.8285 8.41356 16.6855 8.41356C15.5426 8.41356 14.623 7.4421 14.623 6.23458C14.623 5.02706 15.5426 4.05559 16.6855 4.05559ZM27.6855 37.4667C27.6855 37.8662 27.3762 38.193 26.998 38.193H14.623C14.2449 38.193 13.9355 37.8662 13.9355 37.4667V36.014C13.9355 35.6146 14.2449 35.2877 14.623 35.2877H26.998C27.3762 35.2877 27.6855 35.6146 27.6855 36.014V37.4667ZM27.6855 28.7508C27.6855 29.1502 27.3762 29.4771 26.998 29.4771H14.623C14.2449 29.4771 13.9355 29.1502 13.9355 28.7508V27.2981C13.9355 26.8986 14.2449 26.5718 14.623 26.5718H26.998C27.3762 26.5718 27.6855 26.8986 27.6855 27.2981V28.7508ZM27.6855 20.0348C27.6855 20.4343 27.3762 20.7612 26.998 20.7612H14.623C14.2449 20.7612 13.9355 20.4343 13.9355 20.0348V18.5822C13.9355 18.1827 14.2449 17.8558 14.623 17.8558H26.998C27.3762 17.8558 27.6855 18.1827 27.6855 18.5822V20.0348Z" fill="#F1EDED"/>
</svg>
