<svg width="25" height="27" viewBox="0 0 25 27" fill="none" xmlns="http://www.w3.org/2000/svg">
<path d="M8.25893 14.8766H6.02679C5.65848 14.8766 5.35714 14.5977 5.35714 14.2568V12.1906C5.35714 11.8497 5.65848 11.5707 6.02679 11.5707H8.25893C8.62723 11.5707 8.92857 11.8497 8.92857 12.1906V14.2568C8.92857 14.5977 8.62723 14.8766 8.25893 14.8766ZM14.2857 14.2568V12.1906C14.2857 11.8497 13.9844 11.5707 13.6161 11.5707H11.3839C11.0156 11.5707 10.7143 11.8497 10.7143 12.1906V14.2568C10.7143 14.5977 11.0156 14.8766 11.3839 14.8766H13.6161C13.9844 14.8766 14.2857 14.5977 14.2857 14.2568ZM19.6429 14.2568V12.1906C19.6429 11.8497 19.3415 11.5707 18.9732 11.5707H16.7411C16.3728 11.5707 16.0714 11.8497 16.0714 12.1906V14.2568C16.0714 14.5977 16.3728 14.8766 16.7411 14.8766H18.9732C19.3415 14.8766 19.6429 14.5977 19.6429 14.2568ZM14.2857 19.2157V17.1495C14.2857 16.8085 13.9844 16.5296 13.6161 16.5296H11.3839C11.0156 16.5296 10.7143 16.8085 10.7143 17.1495V19.2157C10.7143 19.5566 11.0156 19.8355 11.3839 19.8355H13.6161C13.9844 19.8355 14.2857 19.5566 14.2857 19.2157ZM8.92857 19.2157V17.1495C8.92857 16.8085 8.62723 16.5296 8.25893 16.5296H6.02679C5.65848 16.5296 5.35714 16.8085 5.35714 17.1495V19.2157C5.35714 19.5566 5.65848 19.8355 6.02679 19.8355H8.25893C8.62723 19.8355 8.92857 19.5566 8.92857 19.2157ZM19.6429 19.2157V17.1495C19.6429 16.8085 19.3415 16.5296 18.9732 16.5296H16.7411C16.3728 16.5296 16.0714 16.8085 16.0714 17.1495V19.2157C16.0714 19.5566 16.3728 19.8355 16.7411 19.8355H18.9732C19.3415 19.8355 19.6429 19.5566 19.6429 19.2157ZM25 5.78536V23.9679C25 25.3368 23.8002 26.4474 22.3214 26.4474H2.67857C1.19978 26.4474 0 25.3368 0 23.9679V5.78536C0 4.4165 1.19978 3.30592 2.67857 3.30592H5.35714V0.61986C5.35714 0.278937 5.65848 0 6.02679 0H8.25893C8.62723 0 8.92857 0.278937 8.92857 0.61986V3.30592H16.0714V0.61986C16.0714 0.278937 16.3728 0 16.7411 0H18.9732C19.3415 0 19.6429 0.278937 19.6429 0.61986V3.30592H22.3214C23.8002 3.30592 25 4.4165 25 5.78536ZM22.3214 23.658V8.2648H2.67857V23.658C2.67857 23.8285 2.82924 23.9679 3.01339 23.9679H21.9866C22.1708 23.9679 22.3214 23.8285 22.3214 23.658Z" fill="#666666"/>
</svg>
