<svg width="34" height="46" viewBox="0 0 34 46" fill="white" xmlns="http://www.w3.org/2000/svg">
<path d="M32.8073 9.42776L24.394 0.628517C24.0073 0.22447 23.483 0 22.933 0H22.4088V11.4929H33.4088V10.9452C33.4088 10.3795 33.194 9.83181 32.8073 9.42776ZM19.6588 12.2112V0H2.47131C1.32834 0 0.408813 0.960734 0.408813 2.15492V43.8166C0.408813 45.0108 1.32834 45.9716 2.47131 45.9716H31.3463C32.4893 45.9716 33.4088 45.0108 33.4088 43.8166V14.3661H21.7213C20.5869 14.3661 19.6588 13.3964 19.6588 12.2112ZM5.90881 6.46475C5.90881 6.06789 6.21647 5.74644 6.59631 5.74644H13.4713C13.8512 5.74644 14.1588 6.06789 14.1588 6.46475V7.90136C14.1588 8.29823 13.8512 8.61967 13.4713 8.61967H6.59631C6.21647 8.61967 5.90881 8.29823 5.90881 7.90136V6.46475ZM5.90881 13.6478V12.2112C5.90881 11.8143 6.21647 11.4929 6.59631 11.4929H13.4713C13.8512 11.4929 14.1588 11.8143 14.1588 12.2112V13.6478C14.1588 14.0447 13.8512 14.3661 13.4713 14.3661H6.59631C6.21647 14.3661 5.90881 14.0447 5.90881 13.6478ZM18.2838 37.3411V39.5068C18.2838 39.9037 17.9762 40.2251 17.5963 40.2251H16.2213C15.8415 40.2251 15.5338 39.9037 15.5338 39.5068V37.3259C14.5636 37.2738 13.62 36.92 12.838 36.3068C12.5028 36.0437 12.4856 35.5193 12.789 35.2167L13.7987 34.2102C14.0368 33.9732 14.3908 33.9624 14.6693 34.1447C15.0019 34.3619 15.3791 34.4787 15.771 34.4787H18.1867C18.7453 34.4787 19.2008 33.9471 19.2008 33.2944C19.2008 32.7601 18.8905 32.2896 18.4471 32.1514L14.5799 30.9392C12.9823 30.4382 11.866 28.8364 11.866 27.0433C11.866 24.8417 13.5031 23.0531 15.533 22.9966V20.8309C15.533 20.434 15.8406 20.1126 16.2205 20.1126H17.5955C17.9753 20.1126 18.283 20.434 18.283 20.8309V23.0118C19.2532 23.0639 20.1968 23.4168 20.9788 24.0309C21.314 24.294 21.3312 24.8184 21.0278 25.1209L20.018 26.1275C19.78 26.3645 19.4259 26.3753 19.1475 26.193C18.8149 25.9748 18.4376 25.859 18.0458 25.859H15.6301C15.0715 25.859 14.616 26.3905 14.616 27.0433C14.616 27.5775 14.9262 28.048 15.3697 28.1863L19.2369 29.3985C20.8344 29.8995 21.9508 31.5013 21.9508 33.2944C21.9508 35.4969 20.3137 37.2845 18.2838 37.3411Z" fill="#FFFCFC"/>
</svg>
