<svg width="41" height="35" viewBox="0 0 41 35" fill="none" xmlns="http://www.w3.org/2000/svg">
<path d="M39.7681 6.85967L27.601 0.488647C26.3449 2.32403 23.564 3.60484 20.3207 3.60484C17.0774 3.60484 14.2965 2.32403 13.0404 0.488647L0.873271 6.85967C0.379587 7.12376 0.179613 7.75756 0.423331 8.27912L3.99786 15.8385C4.24782 16.3601 4.84774 16.5714 5.34143 16.3139L8.87846 14.4851C9.54087 14.1418 10.3158 14.6501 10.3158 15.4358V32.1787C10.3158 33.3473 11.2094 34.2914 12.3155 34.2914H28.3134C29.4195 34.2914 30.3131 33.3473 30.3131 32.1787V15.4292C30.3131 14.6502 31.088 14.1352 31.7504 14.4785L35.2875 16.3073C35.7811 16.5714 36.3811 16.3601 36.631 15.8319L40.2118 8.27912C40.4618 7.75756 40.2618 7.11715 39.7681 6.85967Z" fill="#F1EDED"/>
</svg>
