<svg width="41" height="38" viewBox="0 0 41 38" fill="none" xmlns="http://www.w3.org/2000/svg">
<path d="M39.7681 7.57069L27.601 0.662354C26.3449 2.65253 23.564 4.04136 20.3207 4.04136C17.0774 4.04136 14.2965 2.65253 13.0404 0.662354L0.873271 7.57069C0.379587 7.85705 0.179613 8.54431 0.423331 9.10986L3.99786 17.3068C4.24782 17.8724 4.84775 18.1014 5.34143 17.8222L8.87846 15.8392C9.54087 15.467 10.3158 16.0182 10.3158 16.8701V35.0251C10.3158 36.2922 11.2094 37.3159 12.3155 37.3159H28.3134C29.4195 37.3159 30.3131 36.2922 30.3131 35.0251V16.863C30.3131 16.0182 31.088 15.4598 31.7504 15.8321L35.2875 17.8151C35.7811 18.1014 36.3811 17.8724 36.631 17.2996L40.2118 9.10986C40.4618 8.54431 40.2618 7.84989 39.7681 7.57069Z" fill="#F1EDED"/>
</svg>
