<svg width="34" height="48" viewBox="0 0 34 48" fill="none" xmlns="http://www.w3.org/2000/svg">
<path d="M16.4088 24.0568C15.9791 22.6041 15.9877 19.7987 16.2369 19.7987C16.9588 19.7987 16.89 23.1489 16.4088 24.0568ZM16.2627 28.3421C15.601 30.1761 14.776 32.2734 13.822 34.0347C15.3947 33.3992 17.1736 32.4731 19.2275 32.0464C18.1361 31.1748 17.0877 29.9219 16.2627 28.3421ZM8.17595 39.6728C8.17595 39.7455 9.31033 39.1826 11.1752 36.023C10.5994 36.595 8.67439 38.2474 8.17595 39.6728ZM22.0892 15.3317H33.7767V45.1112C33.7767 46.3187 32.8572 47.2902 31.7142 47.2902H2.83923C1.69626 47.2902 0.776733 46.3187 0.776733 45.1112V2.98416C0.776733 1.77664 1.69626 0.805176 2.83923 0.805176H20.0267V13.1528C20.0267 14.3512 20.9549 15.3317 22.0892 15.3317ZM21.4017 30.9297C19.683 29.822 18.54 28.2967 17.7322 26.0451C18.1189 24.3655 18.7291 21.8142 18.265 20.2163C17.8611 17.547 14.6213 17.8103 14.1572 19.5989C13.7275 21.2604 14.1228 23.6028 14.8533 26.5898C13.8564 29.0957 12.3869 32.4549 11.347 34.3797C11.3385 34.3797 11.3385 34.3888 11.3299 34.3888C9.00095 35.6508 5.00486 38.429 6.64626 40.5626C7.12751 41.189 8.02127 41.4705 8.49392 41.4705C10.0322 41.4705 11.5619 39.8363 13.7447 35.8596C15.9619 35.0879 18.3939 34.1255 20.5338 33.7533C22.3986 34.8246 24.5814 35.5237 26.0338 35.5237C28.5431 35.5237 28.715 32.6184 27.7267 31.5833C26.5322 30.3486 23.0603 30.7027 21.4017 30.9297ZM33.1752 10.3382L24.7533 1.44071C24.3666 1.03215 23.8424 0.805176 23.2924 0.805176H22.7767V12.4264H33.7767V11.8726C33.7767 11.3006 33.5619 10.7468 33.1752 10.3382ZM26.8072 33.5172C27.1595 33.2721 26.5924 32.4368 23.1291 32.7001C26.3174 34.1346 26.8072 33.5172 26.8072 33.5172Z" fill="#F1EDED"/>
</svg>
