<svg width="41" height="29" viewBox="0 0 41 29" fill="none" xmlns="http://www.w3.org/2000/svg">
<path d="M36.9888 0.872559H3.65548C1.8152 0.872559 0.322144 2.21725 0.322144 3.87466V25.89C0.322144 27.5474 1.8152 28.8921 3.65548 28.8921H36.9888C38.8291 28.8921 40.3221 27.5474 40.3221 25.89V3.87466C40.3221 2.21725 38.8291 0.872559 36.9888 0.872559ZM12.5444 6.87675C14.9958 6.87675 16.9888 8.67176 16.9888 10.8795C16.9888 13.0873 14.9958 14.8823 12.5444 14.8823C10.093 14.8823 8.09992 13.0873 8.09992 10.8795C8.09992 8.67176 10.093 6.87675 12.5444 6.87675ZM20.3221 21.6871C20.3221 22.3501 19.6277 22.8879 18.7666 22.8879H6.32214C5.46103 22.8879 4.76659 22.3501 4.76659 21.6871V20.4863C4.76659 18.4974 6.85687 16.8837 9.43326 16.8837H9.78048C10.6346 17.2027 11.5652 17.3841 12.5444 17.3841C13.5235 17.3841 14.461 17.2027 15.3083 16.8837H15.6555C18.2319 16.8837 20.3221 18.4974 20.3221 20.4863V21.6871ZM35.8777 18.3848C35.8777 18.66 35.6277 18.8851 35.3221 18.8851H25.3221C25.0166 18.8851 24.7666 18.66 24.7666 18.3848V17.3841C24.7666 17.1089 25.0166 16.8837 25.3221 16.8837H35.3221C35.6277 16.8837 35.8777 17.1089 35.8777 17.3841V18.3848ZM35.8777 14.382C35.8777 14.6572 35.6277 14.8823 35.3221 14.8823H25.3221C25.0166 14.8823 24.7666 14.6572 24.7666 14.382V13.3813C24.7666 13.1061 25.0166 12.8809 25.3221 12.8809H35.3221C35.6277 12.8809 35.8777 13.1061 35.8777 13.3813V14.382ZM35.8777 10.3792C35.8777 10.6544 35.6277 10.8795 35.3221 10.8795H25.3221C25.0166 10.8795 24.7666 10.6544 24.7666 10.3792V9.3785C24.7666 9.10331 25.0166 8.87815 25.3221 8.87815H35.3221C35.6277 8.87815 35.8777 9.10331 35.8777 9.3785V10.3792Z" fill="#F1EDED"/>
</svg>
