<svg width="588" height="719" viewBox="0 0 588 719" fill="none" xmlns="http://www.w3.org/2000/svg">
<circle cx="277.068" cy="546.44" r="172.398" fill="white"/>
<circle cx="291.691" cy="126.99" r="126.99" fill="white"/>
<circle cx="477.173" cy="340.178" r="110.827" fill="white"/>
<ellipse cx="153.927" cy="327.094" rx="153.927" ry="165.471" fill="white"/>
<g style="mix-blend-mode:multiply">
<g filter="url(#filter0_d)">
<ellipse cx="152.994" cy="326.091" rx="139.933" ry="150.428" fill="#003F80"/>
</g>
<ellipse cx="157.658" cy="301.02" rx="103.551" ry="111.317" fill="#549FC0"/>
<path d="M244.417 234.831C222.774 206.752 179.115 192.712 157.658 195.72V209.76C191.242 207.754 225.759 230.82 236.021 243.857L244.417 234.831Z" fill="white" fill-opacity="0.5"/>
<path d="M232.289 248.872C215.497 226.809 178.182 212.769 157.658 214.774V231.823C181.913 229.817 206.168 245.863 221.095 260.906L232.289 248.872Z" fill="white" fill-opacity="0.5"/>
<path d="M251.88 241.852L242.551 250.877C269.605 277.954 272.404 320.074 271.471 336.12H283.598C285.464 288.986 264.008 256.894 251.88 241.852Z" fill="white" fill-opacity="0.5"/>
<path d="M225.759 265.92L237.887 254.889C262.142 275.949 267.739 321.077 265.873 334.114H250.014C250.014 311.049 242.551 283.971 225.759 265.92Z" fill="white" fill-opacity="0.5"/>
</g>
<g filter="url(#filter1_d)">
<g filter="url(#filter2_d)">
<circle cx="276.023" cy="545.395" r="156.725" fill="#003F80"/>
</g>
<path d="M415.602 521.812C415.602 590.671 359.781 646.492 290.921 646.492C222.062 646.492 166.241 590.671 166.241 521.812C166.241 452.952 222.062 397.131 290.921 397.131C359.781 397.131 415.602 452.952 415.602 521.812Z" fill="#549FC0"/>
<path d="M377.316 441.375C353.076 412.12 304.178 397.492 280.147 400.626V415.254C317.761 413.164 356.42 437.196 367.913 450.779L377.316 441.375Z" fill="white" fill-opacity="0.5"/>
<path d="M363.734 456.003C344.926 433.016 303.133 418.389 280.147 420.478V438.241C307.312 436.151 334.478 452.868 351.195 468.541L363.734 456.003Z" fill="white" fill-opacity="0.5"/>
<path d="M385.675 448.689L375.227 458.092C405.527 486.303 408.661 530.186 407.617 546.904H421.199C423.289 497.796 399.258 464.361 385.675 448.689Z" fill="white" fill-opacity="0.5"/>
<path d="M356.42 473.765L370.003 462.272C397.168 484.213 403.437 531.231 401.348 544.814H383.585C383.585 520.783 375.227 492.572 356.42 473.765Z" fill="white" fill-opacity="0.5"/>
</g>
<g filter="url(#filter3_d)">
<circle cx="290.921" cy="126.22" r="115.445" fill="#003F80"/>
</g>
<circle cx="294.77" cy="106.979" r="85.4293" fill="#549FC0"/>
<path d="M366.345 56.1833C348.49 34.6335 312.471 23.8586 294.77 26.1675V36.9424C322.476 35.4031 350.953 53.1047 359.419 63.11L366.345 56.1833Z" fill="white" fill-opacity="0.5"/>
<path d="M356.34 66.9582C342.487 50.0262 311.702 39.2514 294.77 40.7906V53.8744C314.78 52.3351 334.791 64.6492 347.105 76.1938L356.34 66.9582Z" fill="white" fill-opacity="0.5"/>
<path d="M372.503 61.5707L364.806 68.4974C387.126 89.2775 389.435 121.602 388.665 133.916H398.67C400.209 97.7435 382.508 73.1152 372.503 61.5707Z" fill="white" fill-opacity="0.5"/>
<path d="M350.953 80.0419L360.958 71.5759C380.969 87.7382 385.586 122.372 384.047 132.377H370.963C370.963 114.675 364.806 93.8953 350.953 80.0419Z" fill="white" fill-opacity="0.5"/>
<g filter="url(#filter4_d)">
<circle cx="476.501" cy="339.506" r="100.752" fill="#003F80"/>
<circle cx="489.487" cy="312.471" r="64.6492" fill="#549FC0"/>
<path d="M542.326 278.383C526.743 259.576 495.308 250.173 479.859 252.188V261.591C504.04 260.248 528.892 275.697 536.281 284.429L542.326 278.383Z" fill="white" fill-opacity="0.5"/>
<path d="M533.594 287.787C521.504 273.01 494.636 263.607 479.859 264.95V276.368C497.323 275.025 514.787 285.772 525.534 295.847L533.594 287.787Z" fill="white" fill-opacity="0.5"/>
<path d="M547.699 283.085L540.982 289.13C560.461 307.266 562.476 335.476 561.804 346.223H570.536C571.88 314.654 556.431 293.16 547.699 283.085Z" fill="white" fill-opacity="0.5"/>
<path d="M528.892 299.206L537.624 291.817C555.088 305.922 559.118 336.148 557.774 344.88H546.356C546.356 329.431 540.982 311.296 528.892 299.206Z" fill="white" fill-opacity="0.5"/>
</g>
<path d="M220.067 586.98C220.067 583.132 216.786 580.515 210.223 579.128C206.278 578.288 203.534 577.214 201.991 575.906C200.448 574.577 199.676 572.761 199.676 570.456C199.676 568.132 200.653 566.218 202.606 564.714C204.579 563.21 207.137 562.458 210.282 562.458C213.7 562.458 216.444 563.279 218.514 564.919C220.585 566.54 221.62 568.738 221.62 571.511H220.008C220.008 569.382 219.11 567.605 217.313 566.179C215.516 564.753 213.172 564.04 210.282 564.04C207.508 564.04 205.311 564.646 203.69 565.857C202.069 567.068 201.258 568.581 201.258 570.398C201.258 571.824 201.561 572.947 202.167 573.767C202.772 574.568 203.758 575.3 205.126 575.964C206.493 576.609 208.485 577.234 211.102 577.839C213.719 578.445 215.79 579.158 217.313 579.978C218.837 580.798 219.94 581.775 220.624 582.908C221.307 584.021 221.649 585.388 221.649 587.009C221.649 589.509 220.624 591.521 218.573 593.044C216.522 594.568 213.837 595.329 210.516 595.329C206.962 595.329 204.09 594.529 201.903 592.927C199.735 591.306 198.651 589.226 198.651 586.687H200.233C200.389 588.913 201.366 590.652 203.163 591.902C204.979 593.132 207.43 593.747 210.516 593.747C213.348 593.747 215.643 593.093 217.401 591.784C219.178 590.456 220.067 588.855 220.067 586.98ZM240.106 592.283L240.311 591.697L251.268 563.044H253.026L238.846 600.251L238.143 602.009C236.62 605.701 234.1 607.546 230.585 607.546C229.452 607.546 228.671 607.439 228.241 607.224L228.212 605.73C228.837 605.906 229.549 605.993 230.35 605.993C232.01 605.993 233.387 605.505 234.481 604.529C235.575 603.572 236.522 601.999 237.323 599.812L239.256 594.568L226.629 563.044H228.358L240.106 592.283ZM278.602 586.98C278.602 583.132 275.321 580.515 268.758 579.128C264.813 578.288 262.069 577.214 260.526 575.906C258.983 574.577 258.212 572.761 258.212 570.456C258.212 568.132 259.188 566.218 261.141 564.714C263.114 563.21 265.672 562.458 268.817 562.458C272.235 562.458 274.979 563.279 277.049 564.919C279.12 566.54 280.155 568.738 280.155 571.511H278.544C278.544 569.382 277.645 567.605 275.848 566.179C274.051 564.753 271.708 564.04 268.817 564.04C266.044 564.04 263.846 564.646 262.225 565.857C260.604 567.068 259.794 568.581 259.794 570.398C259.794 571.824 260.096 572.947 260.702 573.767C261.307 574.568 262.294 575.3 263.661 575.964C265.028 576.609 267.02 577.234 269.637 577.839C272.254 578.445 274.325 579.158 275.848 579.978C277.372 580.798 278.475 581.775 279.159 582.908C279.842 584.021 280.184 585.388 280.184 587.009C280.184 589.509 279.159 591.521 277.108 593.044C275.057 594.568 272.372 595.329 269.051 595.329C265.497 595.329 262.626 594.529 260.438 592.927C258.27 591.306 257.186 589.226 257.186 586.687H258.768C258.924 588.913 259.901 590.652 261.698 591.902C263.514 593.132 265.965 593.747 269.051 593.747C271.883 593.747 274.178 593.093 275.936 591.784C277.713 590.456 278.602 588.855 278.602 586.98ZM292.489 554.49V563.044H299.696V564.656H292.489V587.156C292.489 589.402 292.85 591.062 293.573 592.136C294.315 593.21 295.546 593.747 297.264 593.747C298.124 593.747 299.169 593.659 300.399 593.484L300.663 594.978C300.018 595.212 298.915 595.329 297.352 595.329C295.047 595.329 293.397 594.695 292.401 593.425C291.405 592.136 290.897 590.115 290.878 587.361V564.656H285.018V563.044H290.878V554.49H292.489ZM319.325 595.329C316.766 595.329 314.413 594.646 312.264 593.279C310.135 591.892 308.465 589.997 307.254 587.595C306.044 585.193 305.438 582.527 305.438 579.597V578.279C305.438 575.349 306.024 572.663 307.196 570.222C308.368 567.781 309.979 565.876 312.03 564.509C314.081 563.142 316.317 562.458 318.739 562.458C322.274 562.458 325.165 563.718 327.411 566.238C329.657 568.757 330.78 572.068 330.78 576.169V577.839H307.02V579.568C307.02 582.146 307.557 584.538 308.631 586.745C309.725 588.933 311.219 590.652 313.114 591.902C315.028 593.152 317.098 593.777 319.325 593.777C321.454 593.777 323.26 593.425 324.745 592.722C326.249 591.999 327.577 590.896 328.729 589.411L329.842 590.202C327.479 593.62 323.973 595.329 319.325 595.329ZM318.739 564.04C315.653 564.04 313.036 565.193 310.887 567.497C308.739 569.783 307.479 572.702 307.108 576.257H329.198V575.876C329.198 573.728 328.739 571.736 327.821 569.9C326.922 568.044 325.672 566.609 324.071 565.593C322.489 564.558 320.712 564.04 318.739 564.04ZM360.838 594.743H359.256V573.445C359.237 570.261 358.534 567.898 357.147 566.355C355.78 564.792 353.592 564.011 350.585 564.011C347.108 564.011 344.266 565.544 342.059 568.611C340.751 570.447 339.881 572.478 339.452 574.704V594.743H337.84V563.044H339.452V570.544C340.526 567.966 342.059 565.974 344.051 564.568C346.044 563.161 348.251 562.458 350.672 562.458C353.329 562.458 355.497 563.044 357.176 564.216C358.876 565.388 359.989 567.302 360.516 569.958C361.454 567.673 362.977 565.857 365.087 564.509C367.196 563.142 369.559 562.458 372.176 562.458C375.594 562.458 378.133 563.425 379.794 565.359C381.473 567.292 382.323 570.193 382.342 574.06V594.743H380.76V574.177C380.76 570.701 380.057 568.132 378.651 566.472C377.264 564.792 375.077 563.972 372.088 564.011C368.241 564.07 365.194 565.603 362.948 568.611C361.659 570.349 360.956 572.029 360.838 573.65V594.743Z" fill="white"/>
<path d="M190.562 496.673H207.137C211.237 496.673 214.462 497.723 216.812 499.823C219.162 501.923 220.337 505.123 220.337 509.423C220.337 511.373 220.012 513.223 219.362 514.973C218.712 516.723 217.387 518.273 215.387 519.623L215.312 519.773V519.848C217.512 520.848 219.337 522.473 220.787 524.723C222.287 526.973 223.037 529.898 223.037 533.498C223.037 537.798 221.862 541.498 219.512 544.598C217.212 547.648 213.312 549.173 207.812 549.173H190.562V496.673ZM206.987 518.198C209.787 518.198 211.987 517.448 213.587 515.948C215.187 514.448 215.987 512.273 215.987 509.423C215.987 503.573 212.837 500.648 206.537 500.648H194.762V518.198H206.987ZM207.662 545.198C211.012 545.198 213.662 544.298 215.612 542.498C217.562 540.698 218.537 537.598 218.537 533.198C218.537 529.698 217.587 527.023 215.687 525.173C213.787 523.273 211.537 522.323 208.937 522.323H194.762V545.198H207.662ZM252.358 545.348C251.158 546.848 249.633 547.998 247.783 548.798C245.983 549.598 244.158 549.998 242.308 549.998C232.908 549.998 228.208 545.423 228.208 536.273V511.598H232.408V536.798C232.408 539.998 233.283 542.373 235.033 543.923C236.833 545.473 239.258 546.248 242.308 546.248C245.308 546.248 247.658 545.498 249.358 543.998C251.108 542.448 251.983 540.048 251.983 536.798V511.598H256.183V549.173H252.058L252.358 545.348ZM292.578 537.398C292.578 539.948 292.053 542.098 291.003 543.848C289.953 545.598 288.528 546.923 286.728 547.823C285.128 548.623 283.503 549.198 281.853 549.548C280.253 549.898 278.528 550.073 276.678 550.073C274.828 550.073 272.278 549.898 269.028 549.548L264.903 549.173V496.673H269.103V513.623C270.303 512.773 271.753 512.123 273.453 511.673C275.203 511.223 277.003 510.998 278.853 510.998C281.703 510.998 284.153 511.473 286.203 512.423C290.453 514.373 292.578 517.973 292.578 523.223V537.398ZM288.453 523.448C288.453 520.398 287.553 518.198 285.753 516.848C284.003 515.448 281.728 514.748 278.928 514.748C277.228 514.748 275.503 514.998 273.753 515.498C272.003 515.948 270.453 516.548 269.103 517.298V545.573C272.053 546.023 274.478 546.248 276.378 546.248C284.428 546.248 288.453 543.323 288.453 537.473V523.448ZM323.34 537.398C323.34 539.948 322.815 542.098 321.765 543.848C320.715 545.598 319.29 546.923 317.49 547.823C315.89 548.623 314.265 549.198 312.615 549.548C311.015 549.898 309.29 550.073 307.44 550.073C305.59 550.073 303.04 549.898 299.79 549.548L295.665 549.173V496.673H299.865V513.623C301.065 512.773 302.515 512.123 304.215 511.673C305.965 511.223 307.765 510.998 309.615 510.998C312.465 510.998 314.915 511.473 316.965 512.423C321.215 514.373 323.34 517.973 323.34 523.223V537.398ZM319.215 523.448C319.215 520.398 318.315 518.198 316.515 516.848C314.765 515.448 312.49 514.748 309.69 514.748C307.99 514.748 306.265 514.998 304.515 515.498C302.765 515.948 301.215 516.548 299.865 517.298V545.573C302.815 546.023 305.24 546.248 307.14 546.248C315.19 546.248 319.215 543.323 319.215 537.473V523.448ZM326.28 496.673H330.48V549.173H326.28V496.673ZM364.22 546.548C362.42 547.698 360.37 548.573 358.07 549.173C355.77 549.773 353.47 550.073 351.17 550.073C347.47 550.073 344.52 549.173 342.32 547.373C340.17 545.523 339.095 542.773 339.095 539.123V523.748C339.095 519.698 340.345 516.548 342.845 514.298C345.395 512.048 348.745 510.923 352.895 510.923C357.045 510.923 360.27 512.048 362.57 514.298C364.92 516.498 366.095 519.573 366.095 523.523V533.273L343.295 534.548V539.123C343.295 541.523 344.07 543.323 345.62 544.523C347.17 545.723 349.195 546.323 351.695 546.323C355.195 546.323 358.82 545.323 362.57 543.323L364.22 546.548ZM361.895 522.998C361.895 519.898 360.92 517.723 358.97 516.473C357.02 515.173 354.97 514.523 352.82 514.523C350.07 514.523 347.795 515.273 345.995 516.773C344.195 518.273 343.295 520.623 343.295 523.823V530.423L361.895 529.523V522.998ZM375.664 539.648C375.964 541.898 377.089 543.598 379.039 544.748C380.989 545.848 383.164 546.398 385.564 546.398C387.814 546.398 389.864 545.898 391.714 544.898C393.564 543.848 394.489 542.173 394.489 539.873C394.489 538.373 394.039 537.148 393.139 536.198C392.289 535.198 391.214 534.398 389.914 533.798C388.614 533.198 386.864 532.548 384.664 531.848C382.214 531.048 380.214 530.298 378.664 529.598C377.114 528.898 375.764 527.923 374.614 526.673C373.464 525.373 372.789 523.748 372.589 521.798L372.514 520.898C372.514 519.248 372.964 517.648 373.864 516.098C374.814 514.498 376.239 513.198 378.139 512.198C380.089 511.198 382.514 510.698 385.414 510.698C387.014 510.698 388.414 510.873 389.614 511.223C390.864 511.523 391.839 511.848 392.539 512.198C393.239 512.548 393.664 512.773 393.814 512.873L392.389 516.323C392.239 516.223 391.864 516.023 391.264 515.723C390.714 515.423 389.914 515.123 388.864 514.823C387.814 514.523 386.664 514.373 385.414 514.373C383.014 514.373 380.964 514.948 379.264 516.098C377.564 517.198 376.714 518.748 376.714 520.748C376.714 522.648 377.489 524.098 379.039 525.098C380.589 526.098 382.964 527.098 386.164 528.098C388.864 528.998 391.039 529.848 392.689 530.648C394.339 531.448 395.739 532.598 396.889 534.098C398.089 535.548 398.689 537.448 398.689 539.798C398.689 542.798 397.564 545.298 395.314 547.298C393.114 549.298 389.864 550.298 385.564 550.298C382.714 550.298 380.239 549.823 378.139 548.873C376.089 547.873 374.514 546.573 373.414 544.973C372.364 543.373 371.789 541.598 371.689 539.648H375.664Z" fill="white"/>
<defs>
<filter id="filter0_d" x="9.06046" y="175.663" width="287.867" height="308.857" filterUnits="userSpaceOnUse" color-interpolation-filters="sRGB">
<feFlood flood-opacity="0" result="BackgroundImageFix"/>
<feColorMatrix in="SourceAlpha" type="matrix" values="0 0 0 0 0 0 0 0 0 0 0 0 0 0 0 0 0 0 127 0"/>
<feOffset dy="4"/>
<feGaussianBlur stdDeviation="2"/>
<feColorMatrix type="matrix" values="0 0 0 0 0 0 0 0 0 0 0 0 0 0 0 0 0 0 0.25 0"/>
<feBlend mode="normal" in2="BackgroundImageFix" result="effect1_dropShadow"/>
<feBlend mode="normal" in="SourceGraphic" in2="effect1_dropShadow" result="shape"/>
</filter>
<filter id="filter1_d" x="115.298" y="388.67" width="321.451" height="321.451" filterUnits="userSpaceOnUse" color-interpolation-filters="sRGB">
<feFlood flood-opacity="0" result="BackgroundImageFix"/>
<feColorMatrix in="SourceAlpha" type="matrix" values="0 0 0 0 0 0 0 0 0 0 0 0 0 0 0 0 0 0 127 0"/>
<feOffset dy="4"/>
<feGaussianBlur stdDeviation="2"/>
<feColorMatrix type="matrix" values="0 0 0 0 0 0 0 0 0 0 0 0 0 0 0 0 0 0 0.25 0"/>
<feBlend mode="normal" in2="BackgroundImageFix" result="effect1_dropShadow"/>
<feBlend mode="normal" in="SourceGraphic" in2="effect1_dropShadow" result="shape"/>
</filter>
<filter id="filter2_d" x="115.298" y="388.67" width="321.451" height="321.451" filterUnits="userSpaceOnUse" color-interpolation-filters="sRGB">
<feFlood flood-opacity="0" result="BackgroundImageFix"/>
<feColorMatrix in="SourceAlpha" type="matrix" values="0 0 0 0 0 0 0 0 0 0 0 0 0 0 0 0 0 0 127 0"/>
<feOffset dy="4"/>
<feGaussianBlur stdDeviation="2"/>
<feColorMatrix type="matrix" values="0 0 0 0 0 0 0 0 0 0 0 0 0 0 0 0 0 0 0.25 0"/>
<feBlend mode="normal" in2="BackgroundImageFix" result="effect1_dropShadow"/>
<feBlend mode="normal" in="SourceGraphic" in2="effect1_dropShadow" result="shape"/>
</filter>
<filter id="filter3_d" x="171.476" y="10.7749" width="238.89" height="238.89" filterUnits="userSpaceOnUse" color-interpolation-filters="sRGB">
<feFlood flood-opacity="0" result="BackgroundImageFix"/>
<feColorMatrix in="SourceAlpha" type="matrix" values="0 0 0 0 0 0 0 0 0 0 0 0 0 0 0 0 0 0 127 0"/>
<feOffset dy="4"/>
<feGaussianBlur stdDeviation="2"/>
<feColorMatrix type="matrix" values="0 0 0 0 0 0 0 0 0 0 0 0 0 0 0 0 0 0 0.25 0"/>
<feBlend mode="normal" in2="BackgroundImageFix" result="effect1_dropShadow"/>
<feBlend mode="normal" in="SourceGraphic" in2="effect1_dropShadow" result="shape"/>
</filter>
<filter id="filter4_d" x="371.749" y="238.754" width="209.504" height="209.504" filterUnits="userSpaceOnUse" color-interpolation-filters="sRGB">
<feFlood flood-opacity="0" result="BackgroundImageFix"/>
<feColorMatrix in="SourceAlpha" type="matrix" values="0 0 0 0 0 0 0 0 0 0 0 0 0 0 0 0 0 0 127 0"/>
<feOffset dy="4"/>
<feGaussianBlur stdDeviation="2"/>
<feColorMatrix type="matrix" values="0 0 0 0 0 0 0 0 0 0 0 0 0 0 0 0 0 0 0.25 0"/>
<feBlend mode="normal" in2="BackgroundImageFix" result="effect1_dropShadow"/>
<feBlend mode="normal" in="SourceGraphic" in2="effect1_dropShadow" result="shape"/>
</filter>
</defs>
</svg>
