<svg width="40" height="39" viewBox="0 0 40 39" fill="none" xmlns="http://www.w3.org/2000/svg">
<path d="M31.4556 4.43683C36.511 7.79624 39.801 13.2907 39.801 19.5094C39.801 29.722 30.91 38.0011 19.9406 38.0235C8.98733 38.0458 0.0160634 29.7369 1.46458e-05 19.5392C-0.00800975 13.3206 3.28199 7.81117 8.32933 4.44429C9.26819 3.82467 10.5762 4.08596 11.1379 5.01913L12.4057 7.11689C12.8792 7.90075 12.6545 8.89364 11.8761 9.43115C8.54599 11.7305 6.41953 15.3736 6.41953 19.5019C6.4115 26.3924 12.3977 32.0512 19.9005 32.0512C27.2508 32.0512 33.4296 26.5119 33.3815 19.4273C33.3574 15.5602 31.3995 11.8275 27.9169 9.42368C27.1385 8.88618 26.9218 7.89329 27.3953 7.11689L28.6631 5.01913C29.2248 4.09342 30.5248 3.8172 31.4556 4.43683ZM23.1103 20.1066V2.18976C23.1103 1.19686 22.2517 0.398071 21.1844 0.398071H18.6166C17.5494 0.398071 16.6907 1.19686 16.6907 2.18976V20.1066C16.6907 21.0995 17.5494 21.8983 18.6166 21.8983H21.1844C22.2517 21.8983 23.1103 21.0995 23.1103 20.1066Z" fill="#F1EDED"/>
</svg>
