<svg width="17" height="17" viewBox="0 0 17 17" fill="none" xmlns="http://www.w3.org/2000/svg">
<path d="M6.44286 0.666016C8.019 0.666016 9.53059 1.29214 10.6451 2.40664C11.7596 3.52114 12.3857 5.03273 12.3857 6.60887C12.3857 8.08087 11.8463 9.43402 10.9594 10.4763L11.2063 10.7232H11.9286L16.5 15.2946L15.1286 16.666L10.5571 12.0946V11.3723L10.3103 11.1254C9.268 12.0123 7.91486 12.5517 6.44286 12.5517C4.86671 12.5517 3.35512 11.9256 2.24062 10.8111C1.12612 9.69661 0.5 8.18502 0.5 6.60887C0.5 5.03273 1.12612 3.52114 2.24062 2.40664C3.35512 1.29214 4.86671 0.666016 6.44286 0.666016ZM6.44286 2.49459C4.15714 2.49459 2.32857 4.32316 2.32857 6.60887C2.32857 8.89459 4.15714 10.7232 6.44286 10.7232C8.72857 10.7232 10.5571 8.89459 10.5571 6.60887C10.5571 4.32316 8.72857 2.49459 6.44286 2.49459Z" fill="#686B6F"/>
</svg>
