<svg width="31" height="45" viewBox="0 0 31 45" fill="none" xmlns="http://www.w3.org/2000/svg">
<path d="M21 16C21 5 15.8244 0 10.5 0C5.1756 0 0 5 0 16V31.0333C0 38.2667 5.45352 44.7667 10.3334 44.7667H30.0089C30.285 44.7667 30.5 44.5429 30.5 44.2667V26.5C30.5 26.2239 30.2761 26 30 26H21.5C21.2239 26 21 25.8267 21 25.5506V16Z" fill="white"/>
<ellipse cx="10.5" cy="14" rx="7.5" ry="10" fill="#222C3C"/>
<path d="M16 13C16 17 14 22 10.5 22C7 22 5 17 5 13C5 9 7 4.5 10.5 4.5C14 4.5 16 9 16 13Z" fill="white" stroke="#222C3C" stroke-width="4.5" stroke-linejoin="round"/>
<path d="M12.3091 28C3.96364 28 1.5 20 1.5 20V28.5C1.99091 43.1243 10.3455 42.5 12.3091 42.5H29V28H12.3091Z" fill="#222C3C"/>
<path d="M8.5 43.5V38.7968C8.5 38.3567 8.55995 37.5 9 37.5C9.44444 37.5 9.5 38.3599 9.5 38.8043V43.5006C9.5 43.7768 9.27614 44 9 44C8.72386 44 8.5 43.7761 8.5 43.5Z" fill="white" stroke="white" stroke-width="0.5"/>
<path d="M12 43V38.2968C12 37.8567 12.06 37 12.5 37C12.9444 37 13 37.8599 13 38.3043V43.0006C13 43.2768 12.7761 43.5 12.5 43.5C12.2239 43.5 12 43.2761 12 43Z" fill="white" stroke="white" stroke-width="0.5"/>
<path d="M15.5 42.5V36.508C15.5 36.015 15.507 35 16 35C16.4976 35 16.5 36.0176 16.5 36.5152V42.5015C16.5 42.7777 16.2761 43 16 43C15.7239 43 15.5 42.7761 15.5 42.5Z" fill="white" stroke="white" stroke-width="0.5"/>
<path d="M26.5 42.5V36.508C26.5 36.015 26.507 35 27 35C27.4976 35 27.5 36.0176 27.5 36.5152V42.5015C27.5 42.7777 27.2761 43 27 43C26.7239 43 26.5 42.7761 26.5 42.5Z" fill="white" stroke="white" stroke-width="0.5"/>
<path d="M19 43V38.2968C19 37.8567 19.06 37 19.5 37C19.9444 37 20 37.8599 20 38.3043V43.0006C20 43.2768 19.7761 43.5 19.5 43.5C19.2239 43.5 19 43.2761 19 43Z" fill="white" stroke="white" stroke-width="0.5"/>
<path d="M22.5 43V38.2968C22.5 37.8567 22.56 37 23 37C23.4444 37 23.5 37.8599 23.5 38.3043V43.0006C23.5 43.2768 23.2761 43.5 23 43.5C22.7239 43.5 22.5 43.2761 22.5 43Z" fill="white" stroke="white" stroke-width="0.5"/>
<path d="M19.7 26V16C19.7 22 15.2 26 12.7 26H19.7Z" fill="#222C3C"/>
</svg>
