<svg width="30" height="45" viewBox="0 0 30 45" fill="none" xmlns="http://www.w3.org/2000/svg">
<path d="M10.2711 28.5554C9.98202 28.5554 9.66868 28.5554 9.4036 28.4957C9.68691 28.4957 10.006 28.5554 10.2711 28.5554C15.5727 28.5554 19.91 22.4237 19.91 14.891C19.91 7.35791 15.5967 1.2262 10.2711 1.2262C4.94574 1.2262 0.632202 7.35791 0.632202 14.891C0.653863 17.1195 1.02939 19.279 1.70453 21.0585L0.662442 18.2204V29.6213C0.662442 36.0646 3.87942 41.6933 8.30726 42.9987L8.99998 43.2025H9.57239C9.80744 43.2025 10.0423 43.2025 10.2773 43.2025H29.3744V28.5554H10.2711Z" fill="#F1EDED"/>
<path d="M14.1754 14.891C14.1754 11.8286 12.4275 9.34595 10.2715 9.34595C8.11569 9.34595 6.3678 11.8286 6.3678 14.891C6.3678 17.953 8.11569 20.4356 10.2715 20.4356C12.4275 20.4356 14.1754 17.953 14.1754 14.891Z" fill="#222C3C"/>
<path d="M10.2715 19.2499C12.0788 19.2499 13.5729 17.2618 13.5729 14.9029C13.5729 12.5435 12.0607 10.5554 10.2715 10.5554C8.48241 10.5554 6.97021 12.5435 6.97021 14.9029C6.97021 17.2618 8.48241 19.2499 10.2715 19.2499Z" fill="#222C3C"/>
<path d="M18.7958 21.1783C17.9433 23.383 16.83 25.1352 15.5546 26.28L12.3918 28.5554H19.8801V18.2203L18.7958 21.1783Z" fill="#F1EDED"/>
<path d="M10.2713 21.6452C12.7535 21.6452 14.7776 18.6156 14.7776 14.9029C14.7776 11.1903 12.7593 8.16028 10.2713 8.16028C7.78325 8.16028 5.76514 11.1903 5.76514 14.9029C5.76514 18.6156 7.78926 21.6452 10.2713 21.6452ZM10.2713 10.5555C12.0786 10.5555 13.5727 12.5435 13.5727 14.9029C13.5727 17.2619 12.0605 19.25 10.2713 19.25C8.48219 19.25 6.97 17.2619 6.97 14.9029C6.97 12.5435 8.48219 10.5436 10.2713 10.5436V10.5555Z" fill="#222C3C"/>
<path d="M29.3746 27.3578H20.4827V14.891C20.4827 6.69917 15.8983 0.0285645 10.2413 0.0285645C4.58462 0.0285645 0 6.69917 0 14.891V29.6212C0 37.1663 3.88568 43.3939 8.89193 44.34H8.99444C9.41008 44.4116 9.83172 44.4717 10.2594 44.4717H29.3746C29.7073 44.4717 29.9771 43.935 29.9771 43.2741V28.5554C29.9771 27.8945 29.707 27.3578 29.3746 27.3578ZM10.2714 2.43571C15.2416 2.43571 19.3078 8.02852 19.3078 14.9029C19.3078 21.7769 15.2656 27.3697 10.2714 27.3697C5.27734 27.3697 1.23489 21.7769 1.23489 14.9029C1.23489 8.02852 5.30736 2.43571 10.2714 2.43571ZM19.3078 21.8848V27.3578H15.8138C17.1778 26.129 18.3676 24.2489 19.2778 21.8848H19.3078ZM28.7722 42.0765H27.5673V36.0164C27.5673 35.3556 27.2975 34.8188 26.9649 34.8188C26.6325 34.8188 26.3625 35.3556 26.3625 36.0164V42.0885H23.9527V38.7949C23.9527 38.1341 23.6829 37.5973 23.3503 37.5973C23.0179 37.5973 22.7479 38.1341 22.7479 38.7949V42.0885H20.3381V38.7949C20.3381 38.1341 20.0683 37.5973 19.7357 37.5973C19.4033 37.5973 19.1333 38.1341 19.1333 38.7949V42.0885H16.7235V36.0164C16.7235 35.3556 16.4537 34.8188 16.1211 34.8188C15.7887 34.8188 15.5187 35.3556 15.5187 36.0164V42.0885H13.2115V38.7949C13.2115 38.1341 12.9415 37.5973 12.609 37.5973C12.2764 37.5973 12.0066 38.1341 12.0066 38.7949V42.0885H10.2716C10.0427 42.0885 9.81971 42.0885 9.59688 42.0885V38.7949C9.59688 38.1341 9.32708 37.5973 8.99444 37.5973C8.66181 37.5973 8.39201 38.1341 8.39201 38.7949V41.8011C4.32554 40.6035 1.26513 35.5973 1.26513 29.6093V21.8848C2.98814 26.5678 6.37969 29.7534 10.3016 29.7534H28.7722V42.0765Z" fill="#222C3C"/>
</svg>
