<svg width="30" height="55" viewBox="0 0 30 55" fill="none" xmlns="http://www.w3.org/2000/svg">
<g clip-path="url(#clip0)">
<path d="M10.2711 33.2902C9.98202 33.2902 9.66868 33.2902 9.4036 33.2351C9.68691 33.2351 10.006 33.2902 10.2711 33.2902C15.5727 33.2902 19.91 27.6354 19.91 20.6885C19.91 13.7413 15.5967 8.08655 10.2711 8.08655C4.94574 8.08655 0.632202 13.7413 0.632202 20.6885C0.653863 22.7437 1.02939 24.7352 1.70453 26.3764L0.662442 23.7589V34.2731C0.662442 40.2153 3.87942 45.4062 8.30726 46.6101L8.99998 46.798H9.57239C9.80744 46.798 10.0423 46.798 10.2773 46.798H29.3744V33.2902H10.2711Z" fill="#F1EDED"/>
<path d="M14.1754 20.6885C14.1754 17.8642 12.4275 15.5747 10.2715 15.5747C8.11569 15.5747 6.3678 17.8642 6.3678 20.6885C6.3678 23.5123 8.11569 25.8019 10.2715 25.8019C12.4275 25.8019 14.1754 23.5123 14.1754 20.6885Z" fill="#222C3C"/>
<path d="M10.2715 24.7084C12.0788 24.7084 13.5729 22.875 13.5729 20.6995C13.5729 18.5236 12.0607 16.6902 10.2715 16.6902C8.48241 16.6902 6.97021 18.5236 6.97021 20.6995C6.97021 22.875 8.48241 24.7084 10.2715 24.7084Z" fill="#222C3C"/>
<path d="M18.7958 26.4868C17.9433 28.52 16.83 30.136 15.5546 31.1917L12.3918 33.2901H19.8801V23.7589L18.7958 26.4868Z" fill="#F1EDED"/>
<path d="M10.2713 26.9174C12.7535 26.9174 14.7776 24.1234 14.7776 20.6996C14.7776 17.2757 12.7593 14.4813 10.2713 14.4813C7.78325 14.4813 5.76514 17.2757 5.76514 20.6996C5.76514 24.1234 7.78926 26.9174 10.2713 26.9174ZM10.2713 16.6902C12.0786 16.6902 13.5727 18.5237 13.5727 20.6996C13.5727 22.8751 12.0605 24.7085 10.2713 24.7085C8.48219 24.7085 6.97 22.8751 6.97 20.6996C6.97 18.5237 8.48219 16.6792 10.2713 16.6792V16.6902Z" fill="#222C3C"/>
<path d="M29.3746 32.1857H20.4827V20.6885C20.4827 13.1338 15.8983 6.98206 10.2413 6.98206C4.58462 6.98206 0 13.1338 0 20.6885V34.2731C0 41.2313 3.88568 46.9746 8.89193 47.847H8.99444C9.41008 47.9131 9.83172 47.9685 10.2594 47.9685H29.3746C29.7073 47.9685 29.9771 47.4735 29.9771 46.8641V33.2901C29.9771 32.6807 29.707 32.1857 29.3746 32.1857ZM10.2714 9.20198C15.2416 9.20198 19.3078 14.3598 19.3078 20.6995C19.3078 27.0389 15.2656 32.1967 10.2714 32.1967C5.27734 32.1967 1.23489 27.0389 1.23489 20.6995C1.23489 14.3598 5.30736 9.20198 10.2714 9.20198ZM19.3078 27.1383V32.1857H15.8138C17.1778 31.0525 18.3676 29.3185 19.2778 27.1383H19.3078ZM28.7722 45.7596H27.5673V40.1709C27.5673 39.5614 27.2975 39.0664 26.9649 39.0664C26.6325 39.0664 26.3625 39.5614 26.3625 40.1709V45.7706H23.9527V42.7333C23.9527 42.1238 23.6829 41.6288 23.3503 41.6288C23.0179 41.6288 22.7479 42.1238 22.7479 42.7333V45.7706H20.3381V42.7333C20.3381 42.1238 20.0683 41.6288 19.7357 41.6288C19.4033 41.6288 19.1333 42.1238 19.1333 42.7333V45.7706H16.7235V40.1709C16.7235 39.5614 16.4538 39.0664 16.1211 39.0664C15.7887 39.0664 15.5187 39.5614 15.5187 40.1709V45.7706H13.2115V42.7333C13.2115 42.1238 12.9415 41.6288 12.609 41.6288C12.2764 41.6288 12.0066 42.1238 12.0066 42.7333V45.7706H10.2716C10.0427 45.7706 9.81971 45.7706 9.59688 45.7706V42.7333C9.59688 42.1238 9.32708 41.6288 8.99444 41.6288C8.66181 41.6288 8.39201 42.1238 8.39201 42.7333V45.5056C4.32554 44.4012 1.26513 39.7844 1.26513 34.2621V27.1383C2.98814 31.4571 6.37969 34.395 10.3016 34.395H28.7722V45.7596Z" fill="#222C3C"/>
</g>
<defs>
<clipPath id="clip0">
<rect width="30" height="55" fill="white"/>
</clipPath>
</defs>
</svg>
