<svg width="33" height="47" viewBox="0 0 33 47" fill="none" xmlns="http://www.w3.org/2000/svg">
<path d="M23 17C23 5 16.5311 0 11.5 0C6.46885 0 0 5 0 17V31.4951C0 39.3213 5.72018 46.5 11 46.5H32.0084C32.2845 46.5 32.5 46.2761 32.5 46V36.4722V26H23V17Z" fill="white"/>
<path d="M22 17C22 6 16.8244 1 11.5 1C6.1756 1 1 6 1 17V32.0333C1 39.2667 6.45352 45.7667 11.3334 45.7667H31.0089C31.285 45.7667 31.5 45.5429 31.5 45.2667V27.5C31.5 27.2239 31.2761 27 31 27H22.5C22.2239 27 22 26.8267 22 26.5506V17Z" fill="#222C3C"/>
<ellipse cx="11.5" cy="15" rx="7.5" ry="10" fill="white"/>
<ellipse cx="11.5" cy="15" rx="5.5" ry="8" fill="#222C3C"/>
<path d="M13 30C4.5 30 2.5 22.5 2.5 22.5V29C3 44 11 43 13 43H30V30H13Z" fill="white"/>
<path d="M9.5 44.5V39.7968C9.5 39.3567 9.55995 38.5 10 38.5C10.4444 38.5 10.5 39.3599 10.5 39.8043V44.5006C10.5 44.7768 10.2761 45 10 45C9.72386 45 9.5 44.7761 9.5 44.5Z" fill="#222C3C" stroke="#222C3C" stroke-width="0.5"/>
<path d="M13 44V39.2968C13 38.8567 13.06 38 13.5 38C13.9444 38 14 38.8599 14 39.3043V44.0006C14 44.2768 13.7761 44.5 13.5 44.5C13.2239 44.5 13 44.2761 13 44Z" fill="#222C3C" stroke="#222C3C" stroke-width="0.5"/>
<path d="M16.5 43.5V37.508C16.5 37.015 16.507 36 17 36C17.4976 36 17.5 37.0176 17.5 37.5152V43.5015C17.5 43.7777 17.2761 44 17 44C16.7239 44 16.5 43.7761 16.5 43.5Z" fill="#222C3C" stroke="#222C3C" stroke-width="0.5"/>
<path d="M27.5 43.5V37.508C27.5 37.015 27.507 36 28 36C28.4976 36 28.5 37.0176 28.5 37.5152V43.5015C28.5 43.7777 28.2761 44 28 44C27.7239 44 27.5 43.7761 27.5 43.5Z" fill="#222C3C" stroke="#222C3C" stroke-width="0.5"/>
<path d="M20 43V38.2968C20 37.8567 20.06 37 20.5 37C20.9444 37 21 37.8599 21 38.3043V43.0006C21 43.2768 20.7761 43.5 20.5 43.5C20.2239 43.5 20 43.2761 20 43Z" fill="#222C3C" stroke="#222C3C" stroke-width="0.5"/>
<path d="M23.5 43V38.2968C23.5 37.8567 23.56 37 24 37C24.4444 37 24.5 37.8599 24.5 38.3043V43.0006C24.5 43.2768 24.2761 43.5 24 43.5C23.7239 43.5 23.5 43.2761 23.5 43Z" fill="#222C3C" stroke="#222C3C" stroke-width="0.5"/>
<path d="M20.7 27V17C20.7 23 16.2 27 13.7 27H20.7Z" fill="white"/>
</svg>
