<svg width="32" height="30" viewBox="0 0 32 30" fill="none" xmlns="http://www.w3.org/2000/svg">
<g filter="url(#filter0_i)">
<g clip-path="url(#clip0)">
<path d="M16.693 16.314C16.6361 16.3026 16.5778 16.3006 16.5201 16.3085C15.9426 16.2465 15.507 15.7955 15.506 15.259C15.506 15.0019 15.2802 14.7935 15.0016 14.7935C14.7231 14.7935 14.4973 15.0019 14.4973 15.259C14.4988 16.1549 15.1479 16.9396 16.0837 17.1766V17.6422C16.0837 17.8993 16.3096 18.1077 16.5881 18.1077C16.8666 18.1077 17.0925 17.8993 17.0925 17.6422V17.2048C18.1726 16.9962 18.9067 16.0676 18.7932 15.0544C18.6794 14.0413 17.7547 13.2713 16.6511 13.2711C16.0187 13.2711 15.506 12.7978 15.506 12.2141C15.506 11.6303 16.0187 11.1571 16.6511 11.1571C17.2836 11.1571 17.7963 11.6303 17.7963 12.2141C17.7963 12.4712 18.0221 12.6796 18.3007 12.6796C18.5792 12.6796 18.805 12.4712 18.805 12.2141C18.8035 11.2734 18.0896 10.4621 17.0925 10.268V9.8443C17.0925 9.5872 16.8666 9.37875 16.5881 9.37875C16.3096 9.37875 16.0837 9.5872 16.0837 9.8443V10.2964C15.043 10.5588 14.3732 11.4914 14.5165 12.4785C14.6598 13.4655 15.5722 14.2022 16.6511 14.202C17.2752 14.202 17.7842 14.6632 17.7956 15.239C17.8071 15.8148 17.3166 16.2931 16.693 16.314Z" fill="#F10606"/>
<path d="M9.33746 13.7724C9.33746 17.5008 12.6119 20.5232 16.6512 20.5232C20.6905 20.5232 23.9649 17.5008 23.9649 13.7724C23.9649 10.0439 20.6905 7.02148 16.6512 7.02148C12.6138 7.02558 9.34214 10.0457 9.33746 13.7724ZM16.6512 7.95258C20.1334 7.95258 22.9562 10.5581 22.9562 13.7724C22.9562 16.9866 20.1334 19.5921 16.6512 19.5921C13.1689 19.5921 10.3462 16.9866 10.3462 13.7724C10.3501 10.5597 13.1706 7.95621 16.6512 7.95258Z" fill="#F10606"/>
<path d="M26.4512 21.6709L22.5003 23.394C21.9548 22.4574 20.9084 21.8614 19.7569 21.8314L16.1096 21.7389C15.5321 21.7237 14.9654 21.5886 14.452 21.3438L14.0808 21.1663C12.1806 20.252 9.91569 20.2543 8.01745 21.1722L8.0406 20.3961C8.04823 20.139 7.8288 19.9249 7.55027 19.9179L3.55086 19.8162C3.27233 19.8092 3.04059 20.0117 3.03295 20.2688L2.79136 28.37C2.78373 28.6271 3.00315 28.8412 3.28168 28.8482L7.2811 28.9499H7.29489C7.56825 28.9499 7.79186 28.7491 7.79925 28.497L7.81083 28.1095L8.84984 27.596C9.25766 27.3934 9.73444 27.3452 10.1799 27.4616L16.3844 29.069C16.3953 29.0719 16.4061 29.0742 16.4172 29.0765C16.8657 29.1631 17.3227 29.2065 17.7808 29.2063C18.7511 29.2067 19.7101 29.0137 20.592 28.64C20.6136 28.6309 20.6346 28.6202 20.6545 28.6082L29.6505 23.2371C29.8746 23.1033 29.947 22.8316 29.8157 22.617C29.1479 21.5232 27.6665 21.1065 26.4512 21.6709ZM3.81363 27.9303L4.02739 20.7598L7.01833 20.8358L6.80457 28.0065L3.81363 27.9303ZM20.1376 27.8085C19.0419 28.265 17.8182 28.3909 16.6406 28.1688L10.4528 26.5655C9.75635 26.3839 9.0109 26.4591 8.3738 26.7753L7.84284 27.0379L7.98494 22.2704C9.66745 21.2374 11.8253 21.1313 13.6171 21.993L13.9882 22.1706C14.6369 22.4797 15.3523 22.6502 16.082 22.6698L19.7295 22.7623C20.754 22.7896 21.6241 23.4629 21.8319 24.3894L16.399 24.251C16.1204 24.2439 15.8887 24.4467 15.8808 24.7036C15.8732 24.9607 16.0929 25.1748 16.3712 25.1818L22.3668 25.3341H22.3809C22.654 25.3339 22.8773 25.1332 22.8847 24.8813C22.8909 24.679 22.8746 24.4765 22.836 24.2774L26.8883 22.51C26.8923 22.5084 26.8962 22.5065 26.9002 22.5047C27.4749 22.2363 28.1699 22.3261 28.6428 22.73L20.1376 27.8085Z" fill="#F10606"/>
<path d="M17.1568 5.71258V1.2899C17.1568 1.03281 16.9307 0.824356 16.6518 0.824356C16.3729 0.824356 16.1468 1.03281 16.1468 1.2899V5.71258C16.1468 5.96968 16.3729 6.17813 16.6518 6.17813C16.9307 6.17813 17.1568 5.96968 17.1568 5.71258Z" fill="#F10606"/>
<path d="M20.9395 5.7126V3.61765C20.9395 3.36055 20.7134 3.1521 20.4345 3.1521C20.1556 3.1521 19.9295 3.36055 19.9295 3.61765V5.7126C19.9295 5.9697 20.1556 6.17815 20.4345 6.17815C20.7134 6.17815 20.9395 5.9697 20.9395 5.7126Z" fill="#F10606"/>
<path d="M13.3741 5.7126V3.61765C13.3741 3.36055 13.1479 3.1521 12.8691 3.1521C12.5902 3.1521 12.3641 3.36055 12.3641 3.61765V5.7126C12.3641 5.9697 12.5902 6.17815 12.8691 6.17815C13.1479 6.17815 13.3741 5.9697 13.3741 5.7126Z" fill="#F10606"/>
</g>
</g>
<defs>
<filter id="filter0_i" x="0.91748" y="0.824356" width="30.7482" height="32.3819" filterUnits="userSpaceOnUse" color-interpolation-filters="sRGB">
<feFlood flood-opacity="0" result="BackgroundImageFix"/>
<feBlend mode="normal" in="SourceGraphic" in2="BackgroundImageFix" result="shape"/>
<feColorMatrix in="SourceAlpha" type="matrix" values="0 0 0 0 0 0 0 0 0 0 0 0 0 0 0 0 0 0 127 0" result="hardAlpha"/>
<feOffset dy="4"/>
<feGaussianBlur stdDeviation="2"/>
<feComposite in2="hardAlpha" operator="arithmetic" k2="-1" k3="1"/>
<feColorMatrix type="matrix" values="0 0 0 0 0 0 0 0 0 0 0 0 0 0 0 0 0 0 0.25 0"/>
<feBlend mode="normal" in2="shape" result="effect1_innerShadow"/>
</filter>
<clipPath id="clip0">
<rect x="0.91748" y="0.824356" width="30.7482" height="28.3819" fill="white"/>
</clipPath>
</defs>
</svg>
