<svg width="32" height="29" viewBox="0 0 32 29" fill="none" xmlns="http://www.w3.org/2000/svg">
<g filter="url(#filter0_i)">
<g clip-path="url(#clip0)">
<path d="M29.4781 13.3956L28.6818 10.4557C28.8995 10.413 29.0629 10.2347 29.0629 10.0211V9.5471C29.0629 8.51792 28.1557 7.68066 27.0408 7.68066H23.4139V6.70292C23.4139 6.19648 22.9676 5.7845 22.4189 5.7845H3.93145C3.38278 5.7845 2.93645 6.19648 2.93645 6.70292V14.7613C2.93645 15.0067 3.15199 15.2057 3.41791 15.2057C3.68378 15.2057 3.89938 15.0067 3.89938 14.7613V6.70292C3.89938 6.68657 3.91373 6.67332 3.93145 6.67332H22.4189C22.4366 6.67332 22.451 6.68657 22.451 6.70292V14.7614C22.451 15.0068 22.6665 15.2058 22.9324 15.2058C23.1983 15.2058 23.4139 15.0069 23.4139 14.7614V14.2576H29.0932C29.0937 14.2576 29.0941 14.2577 29.0945 14.2577C29.095 14.2577 29.0954 14.2577 29.0958 14.2577C29.7947 14.2581 30.3881 14.6815 30.5919 15.2649H29.0949C28.829 15.2649 28.6134 15.4639 28.6134 15.7094V16.6574C28.6134 17.4252 29.2901 18.0498 30.1219 18.0498H30.6676V20.0051H29.4087C28.9952 18.9029 27.8601 18.109 26.5271 18.109C25.1942 18.109 24.0591 18.9029 23.6456 20.0051H23.4138V16.6573C23.4138 16.4119 23.1982 16.2129 22.9323 16.2129C22.6664 16.2129 22.4508 16.4119 22.4508 16.6573V20.005H12.462C12.0484 18.9028 10.9133 18.1089 9.58041 18.1089C8.24749 18.1089 7.11233 18.9028 6.69885 20.005H3.93145C3.91373 20.005 3.89938 19.9918 3.89938 19.9754V18.9977H5.98563C6.2515 18.9977 6.46709 18.7988 6.46709 18.5533C6.46709 18.3079 6.25156 18.1089 5.98563 18.1089H1.36379C1.09792 18.1089 0.882324 18.3079 0.882324 18.5533C0.882324 18.7988 1.09786 18.9977 1.36379 18.9977H2.93651V19.9754C2.93651 20.4818 3.38284 20.8938 3.93151 20.8938H6.53213C6.53201 20.9037 6.53129 20.9135 6.53129 20.9234C6.53129 22.4753 7.89917 23.7379 9.58041 23.7379C11.2617 23.7379 12.6295 22.4753 12.6295 20.9234C12.6295 20.9135 12.6288 20.9037 12.6287 20.8938H23.4789C23.4787 20.9037 23.478 20.9135 23.478 20.9234C23.478 22.4753 24.8459 23.7379 26.5271 23.7379C28.2084 23.7379 29.5763 22.4753 29.5763 20.9234C29.5763 20.9135 29.5755 20.9037 29.5754 20.8938H31.149C31.4149 20.8938 31.6305 20.6949 31.6305 20.4494V15.7092C31.6306 14.5389 30.6951 13.5666 29.4781 13.3956ZM23.4139 8.56942H27.0408C27.6248 8.56942 28.1 9.00801 28.1 9.5471V9.5767H23.4139V8.56942ZM23.4139 13.3688V10.4655H27.692L28.4783 13.3688H23.4139ZM9.58041 22.8492C8.43006 22.8492 7.49416 21.9854 7.49416 20.9235C7.49416 19.8617 8.43006 18.9978 9.58041 18.9978C10.7308 18.9978 11.6667 19.8617 11.6667 20.9235C11.6667 21.9854 10.7308 22.8492 9.58041 22.8492ZM26.5273 22.8492C25.3769 22.8492 24.441 21.9854 24.441 20.9235C24.441 19.8617 25.3769 18.9978 26.5273 18.9978C27.6776 18.9978 28.6135 19.8617 28.6135 20.9235C28.6135 21.9854 27.6776 22.8492 26.5273 22.8492ZM30.6677 17.161H30.122C29.8212 17.161 29.5764 16.935 29.5764 16.6573V16.1537H30.6676V17.161H30.6677Z" fill="#F10606"/>
<path d="M9.58041 20.0051C9.03175 20.0051 8.58542 20.4171 8.58542 20.9235C8.58542 21.43 9.03175 21.8419 9.58041 21.8419C10.1291 21.8419 10.5754 21.43 10.5754 20.9235C10.5754 20.4171 10.1291 20.0051 9.58041 20.0051Z" fill="#F10606"/>
<path d="M26.5273 20.0051C25.9786 20.0051 25.5323 20.4171 25.5323 20.9235C25.5323 21.43 25.9786 21.8419 26.5273 21.8419C27.0759 21.8419 27.5223 21.43 27.5223 20.9235C27.5223 20.4171 27.0759 20.0051 26.5273 20.0051Z" fill="#F10606"/>
<path d="M20.8783 18.1091H13.6887C13.4229 18.1091 13.2073 18.3081 13.2073 18.5535C13.2073 18.799 13.4228 18.9979 13.6887 18.9979H20.8783C21.1442 18.9979 21.3598 18.799 21.3598 18.5535C21.3598 18.3081 21.1442 18.1091 20.8783 18.1091Z" fill="#F10606"/>
<path d="M8.55463 16.213H2.39212C2.12626 16.213 1.91066 16.4119 1.91066 16.6574C1.91066 16.9029 2.1262 17.1018 2.39212 17.1018H8.55463C8.82049 17.1018 9.03609 16.9029 9.03609 16.6574C9.03609 16.4119 8.82049 16.213 8.55463 16.213Z" fill="#F10606"/>
<path d="M17.624 10.1808C17.436 10.0073 17.1311 10.0073 16.9431 10.1809L12.6617 14.1328L10.4344 12.0769C10.2464 11.9034 9.94152 11.9034 9.75354 12.0769C9.56551 12.2505 9.56551 12.5318 9.75354 12.7054L12.3213 15.0755C12.4152 15.1623 12.5385 15.2056 12.6617 15.2056C12.7848 15.2056 12.9081 15.1623 13.002 15.0755L17.6239 10.8093C17.8119 10.6357 17.8119 10.3544 17.624 10.1808Z" fill="#F10606"/>
</g>
</g>
<defs>
<filter id="filter0_i" x="0.882324" y="0.570328" width="30.7482" height="32.3819" filterUnits="userSpaceOnUse" color-interpolation-filters="sRGB">
<feFlood flood-opacity="0" result="BackgroundImageFix"/>
<feBlend mode="normal" in="SourceGraphic" in2="BackgroundImageFix" result="shape"/>
<feColorMatrix in="SourceAlpha" type="matrix" values="0 0 0 0 0 0 0 0 0 0 0 0 0 0 0 0 0 0 127 0" result="hardAlpha"/>
<feOffset dy="4"/>
<feGaussianBlur stdDeviation="2"/>
<feComposite in2="hardAlpha" operator="arithmetic" k2="-1" k3="1"/>
<feColorMatrix type="matrix" values="0 0 0 0 0 0 0 0 0 0 0 0 0 0 0 0 0 0 0.25 0"/>
<feBlend mode="normal" in2="shape" result="effect1_innerShadow"/>
</filter>
<clipPath id="clip0">
<rect x="0.882324" y="0.570328" width="30.7482" height="28.3819" fill="white"/>
</clipPath>
</defs>
</svg>
