<svg width="32" height="30" viewBox="0 0 32 30" fill="none" xmlns="http://www.w3.org/2000/svg">
<g filter="url(#filter0_i)">
<g clip-path="url(#clip0)">
<path d="M16.693 16.2518C16.6361 16.2404 16.5778 16.2384 16.5201 16.2463C15.9426 16.1843 15.507 15.7333 15.506 15.1968C15.506 14.9397 15.2802 14.7312 15.0016 14.7312C14.7231 14.7312 14.4973 14.9397 14.4973 15.1968C14.4988 16.0926 15.1479 16.8773 16.0837 17.1144V17.58C16.0837 17.8371 16.3096 18.0455 16.5881 18.0455C16.8666 18.0455 17.0925 17.8371 17.0925 17.58V17.1426C18.1726 16.9339 18.9067 16.0054 18.7932 14.9922C18.6794 13.979 17.7547 13.2091 16.6511 13.2089C16.0187 13.2089 15.506 12.7356 15.506 12.1519C15.506 11.5681 16.0187 11.0948 16.6511 11.0948C17.2836 11.0948 17.7963 11.5681 17.7963 12.1519C17.7963 12.409 18.0221 12.6174 18.3007 12.6174C18.5792 12.6174 18.805 12.409 18.805 12.1519C18.8035 11.2112 18.0896 10.3999 17.0925 10.2058V9.78209C17.0925 9.52499 16.8666 9.31654 16.5881 9.31654C16.3096 9.31654 16.0837 9.52499 16.0837 9.78209V10.2342C15.043 10.4965 14.3732 11.4292 14.5165 12.4162C14.6598 13.4033 15.5722 14.14 16.6511 14.1398C17.2752 14.1398 17.7842 14.601 17.7956 15.1768C17.8071 15.7526 17.3166 16.2309 16.693 16.2518Z" fill="#3ACC6C"/>
<path d="M9.33746 13.7101C9.33746 17.4386 12.6119 20.461 16.6512 20.461C20.6905 20.461 23.9649 17.4386 23.9649 13.7101C23.9649 9.98169 20.6905 6.95927 16.6512 6.95927C12.6138 6.96337 9.34214 9.9835 9.33746 13.7101ZM16.6512 7.89037C20.1334 7.89037 22.9562 10.4959 22.9562 13.7101C22.9562 16.9244 20.1334 19.5299 16.6512 19.5299C13.1689 19.5299 10.3462 16.9244 10.3462 13.7101C10.3501 10.4975 13.1706 7.894 16.6512 7.89037Z" fill="#3ACC6C"/>
<path d="M26.4512 21.6087L22.5003 23.3318C21.9548 22.3952 20.9084 21.7992 19.7569 21.7692L16.1096 21.6767C15.5321 21.6615 14.9654 21.5264 14.452 21.2816L14.0808 21.1041C12.1806 20.1898 9.91569 20.1921 8.01745 21.11L8.0406 20.3339C8.04823 20.0768 7.8288 19.8627 7.55027 19.8556L3.55086 19.754C3.27233 19.747 3.04059 19.9495 3.03295 20.2066L2.79136 28.3078C2.78373 28.5649 3.00315 28.779 3.28168 28.786L7.2811 28.8876H7.29489C7.56825 28.8876 7.79186 28.6869 7.79925 28.4348L7.81083 28.0473L8.84984 27.5337C9.25766 27.3312 9.73444 27.283 10.1799 27.3994L16.3844 29.0068C16.3953 29.0097 16.4061 29.012 16.4172 29.0143C16.8657 29.1009 17.3227 29.1443 17.7808 29.1441C18.7511 29.1445 19.7101 28.9515 20.592 28.5778C20.6136 28.5687 20.6346 28.558 20.6545 28.546L29.6505 23.1749C29.8746 23.041 29.947 22.7694 29.8157 22.5548C29.1479 21.461 27.6665 21.0443 26.4512 21.6087ZM3.81363 27.8681L4.02739 20.6976L7.01833 20.7736L6.80457 27.9443L3.81363 27.8681ZM20.1376 27.7463C19.0419 28.2027 17.8182 28.3287 16.6406 28.1066L10.4528 26.5033C9.75635 26.3217 9.0109 26.3969 8.3738 26.7131L7.84284 26.9757L7.98494 22.2082C9.66745 21.1752 11.8253 21.0691 13.6171 21.9308L13.9882 22.1084C14.6369 22.4175 15.3523 22.588 16.082 22.6076L19.7295 22.7001C20.754 22.7273 21.6241 23.4007 21.8319 24.3272L16.399 24.1888C16.1204 24.1817 15.8887 24.3845 15.8808 24.6414C15.8732 24.8985 16.0929 25.1126 16.3712 25.1196L22.3668 25.2719H22.3809C22.654 25.2717 22.8773 25.071 22.8847 24.8191C22.8909 24.6168 22.8746 24.4143 22.836 24.2151L26.8883 22.4477C26.8923 22.4462 26.8962 22.4443 26.9002 22.4425C27.4749 22.1741 28.1699 22.2638 28.6428 22.6678L20.1376 27.7463Z" fill="#3ACC6C"/>
<path d="M17.1568 5.65037V1.22769C17.1568 0.970596 16.9307 0.762146 16.6518 0.762146C16.3729 0.762146 16.1468 0.970596 16.1468 1.22769V5.65037C16.1468 5.90747 16.3729 6.11592 16.6518 6.11592C16.9307 6.11592 17.1568 5.90747 17.1568 5.65037Z" fill="#3ACC6C"/>
<path d="M20.9395 5.65039V3.55544C20.9395 3.29834 20.7134 3.08989 20.4345 3.08989C20.1556 3.08989 19.9295 3.29834 19.9295 3.55544V5.65039C19.9295 5.90749 20.1556 6.11594 20.4345 6.11594C20.7134 6.11594 20.9395 5.90749 20.9395 5.65039Z" fill="#3ACC6C"/>
<path d="M13.3741 5.65039V3.55544C13.3741 3.29834 13.1479 3.08989 12.8691 3.08989C12.5902 3.08989 12.3641 3.29834 12.3641 3.55544V5.65039C12.3641 5.90749 12.5902 6.11594 12.8691 6.11594C13.1479 6.11594 13.3741 5.90749 13.3741 5.65039Z" fill="#3ACC6C"/>
</g>
</g>
<defs>
<filter id="filter0_i" x="0.91748" y="0.762146" width="30.7482" height="32.3819" filterUnits="userSpaceOnUse" color-interpolation-filters="sRGB">
<feFlood flood-opacity="0" result="BackgroundImageFix"/>
<feBlend mode="normal" in="SourceGraphic" in2="BackgroundImageFix" result="shape"/>
<feColorMatrix in="SourceAlpha" type="matrix" values="0 0 0 0 0 0 0 0 0 0 0 0 0 0 0 0 0 0 127 0" result="hardAlpha"/>
<feOffset dy="4"/>
<feGaussianBlur stdDeviation="2"/>
<feComposite in2="hardAlpha" operator="arithmetic" k2="-1" k3="1"/>
<feColorMatrix type="matrix" values="0 0 0 0 0 0 0 0 0 0 0 0 0 0 0 0 0 0 0.25 0"/>
<feBlend mode="normal" in2="shape" result="effect1_innerShadow"/>
</filter>
<clipPath id="clip0">
<rect x="0.91748" y="0.762146" width="30.7482" height="28.3819" fill="white"/>
</clipPath>
</defs>
</svg>
