<svg width="32" height="30" viewBox="0 0 32 30" fill="none" xmlns="http://www.w3.org/2000/svg">
<g filter="url(#filter0_i)">
<g clip-path="url(#clip0)">
<path d="M29.4781 13.5891L28.6818 10.6492C28.8995 10.6065 29.0629 10.4282 29.0629 10.2146V9.74063C29.0629 8.71145 28.1557 7.87418 27.0408 7.87418H23.4139V6.89645C23.4139 6.39001 22.9676 5.97803 22.4189 5.97803H3.93145C3.38278 5.97803 2.93645 6.39001 2.93645 6.89645V14.9548C2.93645 15.2002 3.15199 15.3992 3.41791 15.3992C3.68378 15.3992 3.89938 15.2003 3.89938 14.9548V6.89645C3.89938 6.8801 3.91373 6.86685 3.93145 6.86685H22.4189C22.4366 6.86685 22.451 6.8801 22.451 6.89645V14.9549C22.451 15.2003 22.6665 15.3993 22.9324 15.3993C23.1983 15.3993 23.4139 15.2004 23.4139 14.9549V14.4511H29.0932C29.0937 14.4511 29.0941 14.4513 29.0945 14.4513C29.095 14.4513 29.0954 14.4512 29.0958 14.4512C29.7947 14.4516 30.3881 14.875 30.5919 15.4585H29.0949C28.829 15.4585 28.6134 15.6574 28.6134 15.9029V16.8509C28.6134 17.6187 29.2901 18.2433 30.1219 18.2433H30.6676V20.1986H29.4087C28.9952 19.0965 27.8601 18.3025 26.5271 18.3025C25.1942 18.3025 24.0591 19.0965 23.6456 20.1986H23.4138V16.8509C23.4138 16.6055 23.1982 16.4064 22.9323 16.4064C22.6664 16.4064 22.4508 16.6054 22.4508 16.8509V20.1985H12.462C12.0484 19.0964 10.9133 18.3024 9.58041 18.3024C8.24749 18.3024 7.11233 19.0964 6.69885 20.1985H3.93145C3.91373 20.1985 3.89938 20.1853 3.89938 20.1689V19.1913H5.98563C6.2515 19.1913 6.46709 18.9923 6.46709 18.7468C6.46709 18.5014 6.25156 18.3024 5.98563 18.3024H1.36379C1.09792 18.3024 0.882324 18.5014 0.882324 18.7468C0.882324 18.9923 1.09786 19.1913 1.36379 19.1913H2.93651V20.1689C2.93651 20.6754 3.38284 21.0874 3.93151 21.0874H6.53213C6.53201 21.0972 6.53129 21.107 6.53129 21.117C6.53129 22.6689 7.89917 23.9314 9.58041 23.9314C11.2617 23.9314 12.6295 22.6689 12.6295 21.117C12.6295 21.107 12.6288 21.0972 12.6287 21.0874H23.4789C23.4787 21.0972 23.478 21.107 23.478 21.117C23.478 22.6689 24.8459 23.9314 26.5271 23.9314C28.2084 23.9314 29.5763 22.6689 29.5763 21.117C29.5763 21.107 29.5755 21.0972 29.5754 21.0874H31.149C31.4149 21.0874 31.6305 20.8884 31.6305 20.6429V15.9028C31.6306 14.7325 30.6951 13.7601 29.4781 13.5891ZM23.4139 8.76295H27.0408C27.6248 8.76295 28.1 9.20154 28.1 9.74063V9.77023H23.4139V8.76295ZM23.4139 13.5624V10.659H27.692L28.4783 13.5624H23.4139ZM9.58041 23.0428C8.43006 23.0428 7.49416 22.179 7.49416 21.1171C7.49416 20.0552 8.43006 19.1914 9.58041 19.1914C10.7308 19.1914 11.6667 20.0552 11.6667 21.1171C11.6667 22.179 10.7308 23.0428 9.58041 23.0428ZM26.5273 23.0428C25.3769 23.0428 24.441 22.179 24.441 21.1171C24.441 20.0552 25.3769 19.1914 26.5273 19.1914C27.6776 19.1914 28.6135 20.0552 28.6135 21.1171C28.6135 22.179 27.6776 23.0428 26.5273 23.0428ZM30.6677 17.3545H30.122C29.8212 17.3545 29.5764 17.1286 29.5764 16.8509V16.3472H30.6676V17.3545H30.6677Z" fill="#3ACC6C"/>
<path d="M9.58041 20.1986C9.03175 20.1986 8.58542 20.6106 8.58542 21.1171C8.58542 21.6235 9.03175 22.0355 9.58041 22.0355C10.1291 22.0355 10.5754 21.6235 10.5754 21.1171C10.5754 20.6106 10.1291 20.1986 9.58041 20.1986Z" fill="#3ACC6C"/>
<path d="M26.5273 20.1986C25.9786 20.1986 25.5323 20.6106 25.5323 21.1171C25.5323 21.6235 25.9786 22.0355 26.5273 22.0355C27.0759 22.0355 27.5223 21.6235 27.5223 21.1171C27.5223 20.6106 27.0759 20.1986 26.5273 20.1986Z" fill="#3ACC6C"/>
<path d="M20.8783 18.3026H13.6887C13.4229 18.3026 13.2073 18.5016 13.2073 18.747C13.2073 18.9925 13.4228 19.1914 13.6887 19.1914H20.8783C21.1442 19.1914 21.3598 18.9925 21.3598 18.747C21.3598 18.5016 21.1442 18.3026 20.8783 18.3026Z" fill="#3ACC6C"/>
<path d="M8.55463 16.4065H2.39212C2.12626 16.4065 1.91066 16.6055 1.91066 16.8509C1.91066 17.0964 2.1262 17.2953 2.39212 17.2953H8.55463C8.82049 17.2953 9.03609 17.0964 9.03609 16.8509C9.03609 16.6055 8.82049 16.4065 8.55463 16.4065Z" fill="#3ACC6C"/>
<path d="M17.624 10.3743C17.436 10.2008 17.1311 10.2008 16.9431 10.3744L12.6617 14.3263L10.4344 12.2704C10.2464 12.0969 9.94152 12.0969 9.75354 12.2704C9.56551 12.444 9.56551 12.7253 9.75354 12.8989L12.3213 15.269C12.4152 15.3558 12.5385 15.3992 12.6617 15.3992C12.7848 15.3992 12.9081 15.3558 13.002 15.269L17.6239 11.0029C17.8119 10.8292 17.8119 10.5479 17.624 10.3743Z" fill="#3ACC6C"/>
</g>
</g>
<defs>
<filter id="filter0_i" x="0.882324" y="0.763855" width="30.7482" height="32.3819" filterUnits="userSpaceOnUse" color-interpolation-filters="sRGB">
<feFlood flood-opacity="0" result="BackgroundImageFix"/>
<feBlend mode="normal" in="SourceGraphic" in2="BackgroundImageFix" result="shape"/>
<feColorMatrix in="SourceAlpha" type="matrix" values="0 0 0 0 0 0 0 0 0 0 0 0 0 0 0 0 0 0 127 0" result="hardAlpha"/>
<feOffset dy="4"/>
<feGaussianBlur stdDeviation="2"/>
<feComposite in2="hardAlpha" operator="arithmetic" k2="-1" k3="1"/>
<feColorMatrix type="matrix" values="0 0 0 0 0 0 0 0 0 0 0 0 0 0 0 0 0 0 0.25 0"/>
<feBlend mode="normal" in2="shape" result="effect1_innerShadow"/>
</filter>
<clipPath id="clip0">
<rect x="0.882324" y="0.763855" width="30.7482" height="28.3819" fill="white"/>
</clipPath>
</defs>
</svg>
