<svg width="41" height="31" viewBox="0 0 41 31" fill="none" xmlns="http://www.w3.org/2000/svg">
<path d="M6.77673 13.4829C8.98298 13.4829 10.7767 11.5879 10.7767 9.257C10.7767 6.92614 8.98298 5.03109 6.77673 5.03109C4.57048 5.03109 2.77673 6.92614 2.77673 9.257C2.77673 11.5879 4.57048 13.4829 6.77673 13.4829ZM34.7767 13.4829C36.983 13.4829 38.7767 11.5879 38.7767 9.257C38.7767 6.92614 36.983 5.03109 34.7767 5.03109C32.5705 5.03109 30.7767 6.92614 30.7767 9.257C30.7767 11.5879 32.5705 13.4829 34.7767 13.4829ZM36.7767 15.5959H32.7767C31.6767 15.5959 30.683 16.0647 29.958 16.824C32.4767 18.2833 34.2642 20.9179 34.6517 24.0477H38.7767C39.883 24.0477 40.7767 23.1035 40.7767 21.9347V19.8218C40.7767 17.4909 38.983 15.5959 36.7767 15.5959ZM20.7767 15.5959C24.6455 15.5959 27.7767 12.2878 27.7767 8.20052C27.7767 4.11327 24.6455 0.805176 20.7767 0.805176C16.908 0.805176 13.7767 4.11327 13.7767 8.20052C13.7767 12.2878 16.908 15.5959 20.7767 15.5959ZM25.5767 17.7088H25.058C23.758 18.3691 22.3142 18.7653 20.7767 18.7653C19.2392 18.7653 17.8017 18.3691 16.4955 17.7088H15.9767C12.0017 17.7088 8.77673 21.116 8.77673 25.3155V27.2171C8.77673 28.9669 10.1205 30.3866 11.7767 30.3866H29.7767C31.433 30.3866 32.7767 28.9669 32.7767 27.2171V25.3155C32.7767 21.116 29.5517 17.7088 25.5767 17.7088ZM11.5955 16.824C10.8705 16.0647 9.87673 15.5959 8.77673 15.5959H4.77673C2.57048 15.5959 0.776733 17.4909 0.776733 19.8218V21.9347C0.776733 23.1035 1.67048 24.0477 2.77673 24.0477H6.89548C7.28923 20.9179 9.07673 18.2833 11.5955 16.824Z" fill="white"/>
</svg>
