<svg width="41" height="44" viewBox="0 0 41 44" fill="none" xmlns="http://www.w3.org/2000/svg">
<path d="M20.7858 22.0844C27.0983 22.0844 32.2143 17.1849 32.2143 11.1396C32.2143 5.09433 27.0983 0.194824 20.7858 0.194824C14.4733 0.194824 9.35719 5.09433 9.35719 11.1396C9.35719 17.1849 14.4733 22.0844 20.7858 22.0844ZM28.7858 24.8206H27.2947C25.3126 25.6928 23.1072 26.1887 20.7858 26.1887C18.4643 26.1887 16.2679 25.6928 14.2768 24.8206H12.7858C6.16077 24.8206 0.785767 29.9681 0.785767 36.3127V39.8697C0.785767 42.1356 2.70541 43.974 5.07148 43.974H36.5001C38.8661 43.974 40.7858 42.1356 40.7858 39.8697V36.3127C40.7858 29.9681 35.4108 24.8206 28.7858 24.8206Z" fill="#F1EDED"/>
</svg>
